<?xml version="1.0" encoding="UTF-8"?>
<svg version="1.1" xmlns="http://www.w3.org/2000/svg" width="512" height="512">
<path d="M0 0 C6.7009981 0.72415826 13.25166214 1.78575048 19.85010624 3.15402985 C20.90702293 3.3681892 21.96393963 3.58234856 23.0528841 3.80299759 C26.56060773 4.51526046 30.06653638 5.23598138 33.57251835 5.95676422 C36.08862583 6.4695352 38.6048385 6.98179025 41.12114811 7.49356842 C47.22874684 8.73675212 53.3350348 9.98626184 59.44092053 11.23782849 C66.65396176 12.71601179 73.86844318 14.18710957 81.08296561 15.65804338 C99.65332525 19.44465933 118.22065991 23.24601185 136.7873621 27.05051422 C138.13584959 27.32681196 139.48433744 27.60310798 140.83282566 27.87940216 C161.84386325 32.18449357 182.85452647 36.49142555 203.8639307 40.80448151 C235.51814815 47.30263762 267.17966457 53.7635428 298.8498621 60.18332672 C299.69875665 60.35540586 300.5476512 60.52748501 301.42226982 60.70477867 C319.06048658 64.2800354 336.69942261 67.85173565 354.33897495 71.4203968 C359.79635912 72.52449528 365.2536519 73.62904514 370.71092749 74.73368013 C375.03979723 75.60983954 379.36882193 76.48522781 383.69797969 77.35996294 C385.71645193 77.76793023 387.73484982 78.17626312 389.75321674 78.58475113 C392.17180028 79.07422397 394.59049717 79.56313724 397.00934315 80.05131149 C404.94835522 81.65934209 412.87002788 83.33902041 420.7873621 85.05051422 C420.7873621 86.04051422 420.7873621 87.03051422 420.7873621 88.05051422 C418.67155785 89.59874058 416.60529709 90.91814488 414.3498621 92.23801422 C412.86958543 93.13331694 411.39049715 94.03058636 409.9123621 94.92942047 C408.68453007 95.67216217 408.68453007 95.67216217 407.43189335 96.42990875 C402.52409369 99.43747653 397.69187678 102.56357024 392.8498621 105.67551422 C390.68458526 107.06367194 388.51921941 108.45169081 386.35376835 109.83957672 C385.26596073 110.5372818 384.17815311 111.23498688 383.05738163 111.95383453 C377.80294428 115.32288844 372.54502756 118.68650121 367.2873621 122.05051422 C365.20401102 123.38381982 363.12067771 124.7171532 361.0373621 126.05051422 C317.2873621 154.05051422 317.2873621 154.05051422 273.5373621 182.05051422 C272.50450077 182.71156158 271.47163944 183.37260895 270.40747929 184.05368805 C268.3404812 185.37653448 266.27342466 186.69928956 264.20630741 188.02194977 C259.33216647 191.14086097 254.45862016 194.26068962 249.58716679 197.38379669 C247.8539122 198.49493238 246.12047049 199.60577554 244.38697147 200.71652985 C242.2056076 202.11438343 240.02459967 203.51279268 237.84400272 204.91184235 C236.86109257 205.54154938 235.87818241 206.17125641 234.8654871 206.82004547 C234.00342655 207.37281158 233.141366 207.9255777 232.25318241 208.4950943 C231.43946171 209.00838287 230.625741 209.52167145 229.7873621 210.05051422 C228.91982304 210.60392487 228.05228397 211.15733551 227.15845585 211.72751617 C224.09798322 213.43516663 222.2462766 213.51230647 218.7873621 213.05051422 C216.3654871 211.65207672 216.3654871 211.65207672 214.0373621 209.67551422 C213.18400272 208.95235016 212.33064335 208.2291861 211.4514246 207.48410797 C207.84669218 204.19122191 204.40183895 200.76455617 201.0139246 197.24973297 C198.1388423 194.33020486 198.1388423 194.33020486 194.7873621 192.05051422 C189.70068103 192.45793799 185.48098266 194.35419165 180.9357996 196.52317047 C179.79771351 197.05471992 179.79771351 197.05471992 178.63663578 197.59700775 C176.99924107 198.36237464 175.36333081 199.13092377 173.72876835 199.90232086 C169.32601676 201.97930385 164.91178821 204.03162688 160.4982996 206.08567047 C159.59706364 206.5057135 158.69582767 206.92575653 157.76728153 207.35852814 C148.43472401 211.69880617 139.02781592 215.86419553 129.60758305 220.00977325 C120.70704341 223.9298275 111.85042999 227.92870909 103.04126835 232.05051422 C102.14588352 232.46849274 101.2504987 232.88647125 100.327981 233.31711578 C95.96672739 235.35403918 91.6106377 237.40091769 87.26197147 239.46457672 C85.68857748 240.20192669 84.1150183 240.93892431 82.54126835 241.67551422 C81.47193813 242.18985016 81.47193813 242.18985016 80.38100529 242.71457672 C76.75387044 244.40027626 73.81153893 245.68211766 69.7873621 245.05051422 C67.7873621 243.05051422 67.7873621 243.05051422 67.72397423 240.42587757 C67.81065959 239.30317054 67.89734495 238.1804635 67.98665714 237.02373505 C68.07827846 235.73538506 68.16989977 234.44703506 68.26429749 233.11964417 C68.3182269 232.42053578 68.37215631 231.7214274 68.42771995 231.00113392 C68.72026209 227.16332993 68.96908491 223.32265016 69.22080326 219.481987 C69.30246063 218.24770893 69.30246063 218.24770893 69.38576764 216.98849595 C70.51394834 199.63210697 71.12459033 182.24814782 71.5998621 164.86301422 C71.62625468 163.91351521 71.65264726 162.96401619 71.67983961 161.98574448 C74.34543871 99.5792345 74.34543871 99.5792345 46.20128727 46.18987274 C32.79630625 32.37926908 16.90255796 20.05836182 0.28206444 10.34428883 C-1.52393246 9.23691559 -1.52393246 9.23691559 -4.2126379 7.05051422 C-4.74399471 4.39633942 -4.74399471 4.39633942 -4.2126379 2.05051422 C-2.2126379 0.05051422 -2.2126379 0.05051422 0 0 Z " fill="#EEEBEF" transform="translate(35.21263790130615,152.9494857788086)"/>
<path d="M0 0 C3.83089199 2.80256397 7.44442558 5.85769875 11 9 C14.59147775 7.41129925 17.37644653 5.19219734 20.4375 2.75 C32.8454222 -6.81279354 46.34725905 -11.419709 62 -10 C75.07328193 -7.47017603 85.20337529 -0.76437218 93 10 C102.27985883 25.19287545 104.32557798 42.32539156 101 59.6875 C92.63196948 90.35730489 66.4899968 114.87710379 39.83496094 130.24853516 C34.95945621 132.97396592 30.01081606 135.53337944 25 138 C24.01644531 138.48984375 23.03289062 138.9796875 22.01953125 139.484375 C15.55455819 142.4111535 10.31033575 142.51917449 3.54785156 140.13574219 C0.94672854 139.02010188 -1.58899442 137.81907722 -4.125 136.5625 C-5.03934814 136.11729004 -5.95369629 135.67208008 -6.89575195 135.21337891 C-18.92278025 129.22040307 -29.78629679 121.72277674 -40 113 C-40.83015625 112.29230469 -41.6603125 111.58460938 -42.515625 110.85546875 C-55.5039741 99.4807029 -65.99885422 86.4554728 -73 70.625 C-73.27859863 69.99577637 -73.55719727 69.36655273 -73.84423828 68.71826172 C-77.20301476 60.68786618 -78.3713176 52.8588948 -78.3125 44.1875 C-78.30686035 43.3109375 -78.3012207 42.434375 -78.29541016 41.53125 C-78.01243538 26.35707759 -72.95152944 13.20529013 -62.33984375 2.1875 C-44.14808533 -14.81982006 -19.93940254 -12.76608089 0 0 Z " fill="#FF96A3" transform="translate(395,354)"/>
<path d="M0 0 C1.04800781 0.54269531 2.09601563 1.08539063 3.17578125 1.64453125 C9.4417614 5.10135467 14.85890855 9.02523798 20 14 C21.3303125 12.7625 21.3303125 12.7625 22.6875 11.5 C37.8716121 -1.47104313 53.43152334 -6.53683521 73 -5 C84.59055275 -2.65509048 94.13165753 4.55240657 101 14 C103.34214853 17.87885231 105.25346391 21.82137159 107 26 C107.34160156 26.804375 107.68320313 27.60875 108.03515625 28.4375 C112.28847006 40.78200149 111.80717261 57.92344441 107 70 C106.68289062 70.92039062 106.36578125 71.84078125 106.0390625 72.7890625 C100.78143156 86.92127616 91.41386245 98.3453546 81 109 C80.21109375 109.85078125 79.4221875 110.7015625 78.609375 111.578125 C65.26405959 125.63047699 40.34416461 144.75889231 20.34765625 146.27734375 C15.51236563 146.20563627 11.75939149 144.60753659 7.4375 142.5625 C6.65810059 142.20341553 5.87870117 141.84433105 5.07568359 141.47436523 C-25.48148211 127.07861403 -54.88945235 102.33476254 -67 70 C-72.39426655 53.89924244 -71.54287569 36.30062825 -64.57421875 20.8359375 C-58.49139835 9.17326893 -49.1314193 -0.27852367 -36.33984375 -4.37109375 C-23.73122374 -6.74534851 -11.45545499 -6.00768247 0 0 Z " fill="#FF97A4" transform="translate(125,5)"/>
<path d="M0 0 C36.6225843 0.64529531 73.24190084 1.40063428 109.86067902 2.23303616 C114.80278473 2.34537741 119.74489927 2.45732339 124.68701935 2.56903076 C140.36396238 2.923418 156.04087512 3.27911556 171.71776488 3.63585067 C183.98312869 3.91490106 196.24853947 4.19182576 208.51397249 4.46781516 C221.25108299 4.7544413 233.9881576 5.04261839 246.72519708 5.33238411 C253.82004995 5.49376155 260.91491486 5.65455195 268.00981903 5.81365967 C274.65894447 5.96278448 281.30801701 6.11409059 287.95706177 6.26677704 C290.37145653 6.32189674 292.78586682 6.37634172 295.20029449 6.43000031 C311.47433145 6.79223447 327.73581718 7.32670967 344 8 C344 8.33 344 8.66 344 9 C343.36651062 9.03135982 342.73302123 9.06271965 342.0803352 9.09502977 C304.5276413 10.95408284 266.97509098 12.81601104 229.42272461 14.68166872 C224.91292096 14.90572002 220.40311612 15.12974731 215.89331055 15.35375977 C214.99549629 15.39835668 214.09768204 15.44295359 213.1726613 15.48890192 C198.63883255 16.21077993 184.10490813 16.93071386 169.57094736 17.64992832 C154.65576861 18.38805081 139.74069473 19.12826486 124.82571596 19.87041718 C115.62373809 20.32823111 106.42168249 20.78441699 97.2195205 21.23851515 C90.90772107 21.5501396 84.5960247 21.86379716 78.28440524 22.17904549 C74.6439536 22.36081628 71.00346359 22.54169816 67.36284828 22.72016335 C63.41155258 22.91388182 59.46047811 23.11188535 55.50941467 23.31028748 C53.79197488 23.39346455 53.79197488 23.39346455 52.03983933 23.47832197 C45.9905341 23.7860111 40.01233553 24.26119569 34 25 C37.55769945 28.63769729 41.14271705 32.17761371 45 35.5 C48.22956367 38.28239332 51.23322653 41.21019429 54.21875 44.25 C56.08389674 46.08242487 58.01927746 47.79353135 60 49.5 C63.22956367 52.28239332 66.23322653 55.21019429 69.21875 58.25 C71.08389674 60.08242487 73.01927746 61.79353135 75 63.5 C78.19595347 66.25343684 81.17230063 69.14677179 84.12524414 72.15649414 C85.93223688 73.93336641 87.79344934 75.59436873 89.71484375 77.24609375 C93.93289886 80.91400987 98.00746828 84.71606732 102.0625 88.5625 C106.49733346 92.76184247 110.93603545 96.95402005 115.4375 101.08203125 C116.13222412 101.72132568 116.82694824 102.36062012 117.54272461 103.01928711 C118.86771548 104.2366515 120.19653866 105.44986067 121.52954102 106.65844727 C123.05725092 108.06592751 124.53437778 109.52797768 126 111 C126 111.66 126 112.32 126 113 C125.1241626 113.38518799 124.2483252 113.77037598 123.34594727 114.16723633 C104.45054703 122.48580474 85.64452529 130.97296341 66.93273926 139.69692993 C52.77187548 146.29565286 38.53980368 152.71694708 24.2421875 159.01367188 C23.52717575 159.32896851 22.812164 159.64426514 22.07548523 159.96911621 C20.75829189 160.54949111 19.44048545 161.12847775 18.12190247 161.70568848 C15.28002218 162.95667596 12.49675622 164.25814702 9.7331543 165.67578125 C6.8351605 167.07986507 5.17177482 167.44052428 2 167 C0 165 0 165 -0.24609566 162.17703819 C-0.24425207 160.96211504 -0.24240849 159.74719189 -0.24050903 158.49545288 C-0.24221788 157.81995789 -0.24392673 157.1444629 -0.24568737 156.44849837 C-0.24899397 154.17438087 -0.2379596 151.90055537 -0.22705078 149.62646484 C-0.22648692 148.00057482 -0.22680274 146.37468428 -0.22793579 144.74879456 C-0.22851128 140.32545604 -0.21672532 135.90222528 -0.20278788 131.47891188 C-0.19031313 126.85977692 -0.1891126 122.24063968 -0.18673706 117.62149048 C-0.18051269 108.87024766 -0.16408897 100.11905461 -0.14403808 91.36783373 C-0.1217088 81.40667793 -0.11069314 71.44551979 -0.10064721 61.4843452 C-0.07972355 40.98953565 -0.04452903 20.49477096 0 0 Z " fill="#CFC6D3" transform="translate(103,231)"/>
<path d="M0 0 C1.11662462 0.77399587 2.22261016 1.56379085 3.3125 2.375 C5.82135616 4.30026104 5.82135616 4.30026104 8.3125 3.5625 C9.199375 3.046875 10.08625 2.53125 11 2 C12.518816 1.14225139 14.03983664 0.28840011 15.5625 -0.5625 C16.30628906 -0.99691406 17.05007812 -1.43132812 17.81640625 -1.87890625 C24.59066818 -5.35692624 33.66393389 -5.21433545 40.859375 -3.19921875 C49.07782742 0.51439872 54.9793306 6.85265791 58.5 15.125 C62.01508667 26.26391908 60.88433523 38.09438183 55.78125 48.48046875 C52.07546511 55.12000001 47.31513412 60.59844094 42 66 C41.23816406 66.77472656 40.47632812 67.54945313 39.69140625 68.34765625 C33.1374635 74.62179192 25.99357371 78.81379197 18 83 C16.95972656 83.55429687 15.91945312 84.10859375 14.84765625 84.6796875 C10.26741652 86.80331031 6.94899115 87.07072513 2 86 C-7.93733865 82.09755275 -17.16588976 76.21278426 -25 69 C-25.85078125 68.22914063 -26.7015625 67.45828125 -27.578125 66.6640625 C-37.72448364 57.03413529 -45.82576617 45.43311046 -46.47119141 31.08520508 C-46.61582416 20.61649054 -44.5796467 12.69017444 -37.8125 4.5625 C-27.40208677 -6.06761351 -13.03061771 -7.17767852 0 0 Z " fill="#FE5477" transform="translate(61,426)"/>
<path d="M0 0 C1.11662462 0.77399587 2.22261016 1.56379085 3.3125 2.375 C5.82135616 4.30026104 5.82135616 4.30026104 8.3125 3.5625 C9.199375 3.046875 10.08625 2.53125 11 2 C12.518816 1.14225139 14.03983664 0.28840011 15.5625 -0.5625 C16.30628906 -0.99691406 17.05007813 -1.43132812 17.81640625 -1.87890625 C24.59066818 -5.35692624 33.66393389 -5.21433545 40.859375 -3.19921875 C49.04998174 0.50181629 54.95951265 6.83024795 58.5 15.0625 C62.3924698 27.4523704 60.45703058 39.32789193 54.6328125 50.66015625 C45.62986486 66.22495379 28.46883125 80.9618878 11 86 C4.67921212 86.56055917 0.72187234 85.47300994 -4.8125 82.5 C-5.50754639 82.13688721 -6.20259277 81.77377441 -6.91870117 81.3996582 C-23.53107076 72.51272202 -38.4999031 59.27110384 -45 41.125 C-47.56346764 30.82086536 -47.28915211 19.35554324 -42 10 C-31.71394027 -4.52391634 -16.09180054 -8.86387534 0 0 Z " fill="#FE5477" transform="translate(398,81)"/>
<path d="M0 0 C62.13228191 1.15059781 62.13228191 1.15059781 83.95214844 1.6484375 C86.51887826 1.7061617 89.08561011 1.7637957 91.65234375 1.8213501 C97.72169284 1.95763168 103.79101534 2.09505992 109.86032626 2.23302984 C114.80254964 2.3453697 119.74478169 2.45732074 124.68701935 2.56903076 C140.36396238 2.923418 156.04087512 3.27911556 171.71776488 3.63585067 C183.98312869 3.91490106 196.24853947 4.19182576 208.51397249 4.46781516 C221.25108299 4.7544413 233.9881576 5.04261839 246.72519708 5.33238411 C253.82004995 5.49376155 260.91491486 5.65455195 268.00981903 5.81365967 C274.65894447 5.96278448 281.30801701 6.11409059 287.95706177 6.26677704 C290.37145653 6.32189674 292.78586682 6.37634172 295.20029449 6.43000031 C311.47433145 6.79223447 327.73581718 7.32670967 344 8 C344 8.33 344 8.66 344 9 C305.84177904 10.91412557 267.6834144 12.82536148 229.52485527 14.73273405 C225.01762708 14.95803234 220.51040009 15.18335449 216.00317383 15.40869141 C214.65723938 15.47598024 214.65723938 15.47598024 213.28411434 15.54462844 C198.76441713 16.27058522 184.24481741 16.99847464 169.72525295 17.72708112 C154.82156755 18.47491994 139.91777895 19.22067532 125.01389295 19.96450567 C115.82095673 20.42337674 106.62810438 20.88386343 97.43535344 21.34643161 C91.12746481 21.66368076 84.81947686 21.97890207 78.51140799 22.29254687 C74.87462021 22.47343181 71.23788198 22.65519331 67.60125923 22.83936882 C63.65096043 23.0394068 59.70045594 23.23516556 55.74992371 23.43054199 C54.61078952 23.48890622 53.47165534 23.54727044 52.29800195 23.60740328 C45.52569583 23.93798822 38.78015321 24.06932482 32 24 C31.89002686 25.22766083 31.78005371 26.45532166 31.66674805 27.72018433 C30.99348455 33.73811281 29.6665137 39.57642336 28.33203125 45.47705078 C28.06039154 46.69607086 27.78875183 47.91509094 27.50888062 49.17105103 C26.92118109 51.80530749 26.33178105 54.43911079 25.73934937 57.07229996 C24.80152787 61.24085995 23.87065342 65.41095294 22.94067383 69.58126831 C21.30141355 76.92807706 19.65628709 84.27356275 18.0098877 91.61877441 C15.53038478 102.68115472 13.05596153 113.74467065 10.5863409 124.8092612 C9.66188636 128.95007118 8.7345418 133.09021992 7.80484009 137.22985482 C7.09050484 140.41335866 6.3795465 143.59761714 5.66796875 146.78173828 C5.41131439 147.920625 5.15466003 149.05951172 4.89022827 150.23291016 C3.72139507 155.47744131 2.64974473 160.66489363 2 166 C1.34 165.67 0.68 165.34 0 165 C0 110.55 0 56.1 0 0 Z " fill="#C1B5C6" transform="translate(103,231)"/>
<path d="M0 0 C-1.35499183 2.70998367 -2.8172782 2.95948475 -5.5625 4.1875 C-18.24734948 10.46677115 -24.74388257 21.12941154 -29.5 34.125 C-34.30408747 51.71139164 -30.87870679 69.93330745 -22.20288086 85.64648438 C-16.58858082 95.38633715 -9.6975527 103.83675906 -2 112 C-1.39929688 112.66515625 -0.79859375 113.3303125 -0.1796875 114.015625 C12.46568112 127.48212145 30.03642797 137.981807 47 145 C47 145.66 47 146.32 47 147 C45.50817784 147.68477083 44.00592508 148.34682767 42.5 149 C41.6646875 149.37125 40.829375 149.7425 39.96875 150.125 C32.53110464 152.31714811 27.18797775 150.75669727 20.4375 147.5625 C19.65810059 147.20341553 18.87870117 146.84433105 18.07568359 146.47436523 C-12.48148211 132.07861403 -41.88945235 107.33476254 -54 75 C-59.39426655 58.89924244 -58.54287569 41.30062825 -51.57421875 25.8359375 C-45.46519087 14.12302099 -36.15098393 4.86282798 -23.390625 0.609375 C-15.69915673 -0.77296261 -7.77947037 -0.27430062 0 0 Z " fill="#FF7D8D" transform="translate(112,0)"/>
<path d="M0 0 C-0.90878906 0.38478516 -0.90878906 0.38478516 -1.8359375 0.77734375 C-13.8169995 6.25176747 -21.68446087 14.6885913 -27.6875 26.25 C-34.05099972 44.43142778 -33.48798858 61.96480823 -25.4375 79.5 C-10.69333907 110.03412862 16.14050022 129.69136451 46 144 C46 144.66 46 145.32 46 146 C44.53319668 146.71349723 43.05051439 147.39436569 41.5625 148.0625 C40.73878906 148.44535156 39.91507812 148.82820312 39.06640625 149.22265625 C30.96861293 151.27547264 24.06965572 148.12741348 16.875 144.5625 C15.96065186 144.11729004 15.04630371 143.67208008 14.10424805 143.21337891 C2.07721975 137.22040307 -8.78629679 129.72277674 -19 121 C-19.83015625 120.29230469 -20.6603125 119.58460938 -21.515625 118.85546875 C-34.5039741 107.4807029 -44.99885422 94.4554728 -52 78.625 C-52.27859863 77.99577637 -52.55719727 77.36655273 -52.84423828 76.71826172 C-56.20301476 68.68786618 -57.3713176 60.8588948 -57.3125 52.1875 C-57.30686035 51.3109375 -57.3012207 50.434375 -57.29541016 49.53125 C-57.01243538 34.35707759 -51.95152944 21.20529013 -41.33984375 10.1875 C-31.56093911 1.04528531 -12.89028789 -7.72799034 0 0 Z " fill="#FF7D8D" transform="translate(374,346)"/>
<path d="M0 0 C-0.47050781 0.68964844 -0.94101562 1.37929687 -1.42578125 2.08984375 C-7.70570782 11.56824224 -11.34387669 19.45487749 -10 31 C-6.36438146 48.74528097 5.32458655 62.99806894 20.22265625 72.90332031 C26.68607113 76.89146038 33.79558917 80.59852972 41 83 C41 83.66 41 84.32 41 85 C39.34319324 85.85276819 37.67388085 86.68125393 36 87.5 C34.6078125 88.19609375 34.6078125 88.19609375 33.1875 88.90625 C27.79585364 90.75632473 23.28376173 90.7734783 18.10546875 88.53125 C16.7893382 87.87409629 15.4834229 87.19615693 14.1875 86.5 C13.49245361 86.13688721 12.79740723 85.77377441 12.08129883 85.3996582 C-4.53107076 76.51272202 -19.4999031 63.27110384 -26 45.125 C-28.56346764 34.82086536 -28.28915211 23.35554324 -23 14 C-17.18106761 5.78366746 -10.49020646 -0.40346948 0 0 Z " fill="#FE3F67" transform="translate(379,77)"/>
<path d="M0 0 C-0.38671875 0.44988281 -0.7734375 0.89976562 -1.171875 1.36328125 C-7.69715015 9.42296515 -10.73254177 17.67693824 -10.31640625 28.09375 C-8.58360991 44.00980527 1.17080072 56.2361826 12.81640625 66.4765625 C21.10071674 73.03638387 31.55986785 79.63296018 42 82 C42 82.66 42 83.32 42 84 C35.45576501 87.89869319 29.65990467 90.91749919 22 89 C12.06242866 85.01695527 2.8650056 79.2412293 -5 72 C-5.85078125 71.22914063 -6.7015625 70.45828125 -7.578125 69.6640625 C-17.72448364 60.03413529 -25.82576617 48.43311046 -26.47119141 34.08520508 C-26.63529796 22.20694989 -23.76388673 13.72994367 -15.4453125 5.109375 C-10.87711554 1.16875781 -6.052715 -2.0266394 0 0 Z " fill="#FE3F67" transform="translate(41,423)"/>
<path d="M0 0 C0.66 0.33 1.32 0.66 2 1 C-1.96 4.96 -5.92 8.92 -10 13 C-10 8.97698923 -8.67577112 7.95743123 -6 5 C-4.05056443 3.25501743 -2.04941287 1.63021478 0 0 Z " fill="#FF8299" transform="translate(76,7)"/>
</svg>
